<svg width="71" height="71" viewBox="0 0 71 71" fill="none" xmlns="http://www.w3.org/2000/svg">
<g clip-path="url(#clip0_456_1341)">
<rect y="0.138672" width="70.722" height="70.722" rx="35.361" fill="white"/>
<path d="M35.361 70.8606C54.8903 70.8606 70.722 55.029 70.722 35.4997C70.722 15.9703 54.8903 0.138672 35.361 0.138672C15.8317 0.138672 0 15.9703 0 35.4997C0 43.0742 2.38157 50.0925 6.43675 55.8466C9.87361 50.2569 14.0469 45.1377 18.8547 40.6313C19.7871 39.7563 20.7367 38.9085 21.7037 38.0878C23.2396 36.7893 24.8269 35.554 26.4656 34.3819C27.8015 33.4287 29.1687 32.5188 30.5672 31.6522C28.5149 29.7893 26.3795 27.9625 24.1783 26.186L19.6455 22.7132L18.9851 22.1981C18.9115 22.1422 18.835 22.09 18.7565 22.0365L18.7564 22.0365C18.7368 22.0231 18.717 22.0096 18.6972 21.996C18.6331 21.952 18.5948 21.923 18.5576 21.8948L18.5573 21.8946C18.537 21.8792 18.517 21.864 18.4932 21.8467C18.4253 21.797 18.3576 21.7469 18.2898 21.6968C18.0908 21.5497 17.8909 21.402 17.6833 21.2593C17.5989 21.1673 17.5227 21.0682 17.4556 20.963C17.2009 20.5627 17.0747 20.094 17.0939 19.6199C17.1131 19.1459 17.2767 18.689 17.5628 18.3104C17.8489 17.9319 18.2438 17.6499 18.6947 17.5022C19.1456 17.3544 19.6309 17.348 20.0855 17.4837L20.4576 17.6294L21.7617 18.1422L25.5047 19.5987L31.6474 22.0295L41.3098 25.8382C42.4914 25.1806 43.6322 24.5686 44.7215 24.0117C46.1219 23.2985 47.4359 22.6823 48.6286 22.1824L48.8463 22.0857C50.8873 21.2383 52.5383 20.7565 53.5961 20.7727C53.9476 20.752 54.2962 20.8468 54.589 21.0424C54.6453 21.3968 54.5816 21.7598 54.408 22.0738C53.9695 23.043 52.8335 24.3335 51.2097 25.8229L51.03 25.9793C50.0727 26.8487 48.9586 27.7789 47.7202 28.7464C46.7537 29.496 45.718 30.273 44.6224 31.0657L44.4831 33.4782L44.203 38.1254L43.4178 50.803L43.3374 52.0273L43.2506 53.426L43.2253 53.8248C43.1561 54.2942 42.9451 54.7312 42.6205 55.0774C42.296 55.4235 41.8734 55.6621 41.4094 55.7613C40.9454 55.8606 40.4622 55.8156 40.0245 55.6325C39.5867 55.4494 39.2154 55.1369 38.9603 54.7369C38.893 54.6308 38.835 54.5192 38.7869 54.4032C38.7777 54.3551 38.7685 54.3069 38.7593 54.2587C38.7515 54.2177 38.7437 54.1767 38.7359 54.1357L38.7356 54.1346C38.6904 53.8969 38.645 53.6587 38.5983 53.4229C38.5905 53.3849 38.5831 53.3466 38.5758 53.3087C38.5716 53.2867 38.5673 53.2648 38.5631 53.2432C38.5585 53.22 38.5539 53.1972 38.5492 53.1749C38.5418 53.1399 38.5339 53.0904 38.5253 53.0362C38.5146 52.9684 38.5027 52.8933 38.4891 52.8305L37.0793 46.4246C36.4172 43.7405 35.6837 41.0934 34.8831 38.5031L34.8802 38.4938L34.1408 38.9647C32.3944 40.077 30.7113 41.2511 29.0924 42.4825C17.0605 51.6347 20.2438 70.8606 35.361 70.8606Z" fill="url(#paint0_linear_456_1341)"/>
<mask id="mask0_456_1341" style="mask-type:alpha" maskUnits="userSpaceOnUse" x="0" y="0" width="71" height="71">
<path d="M35.361 70.8606C54.8903 70.8606 70.722 55.029 70.722 35.4997C70.722 15.9703 54.8903 0.138672 35.361 0.138672C15.8317 0.138672 0 15.9703 0 35.4997C0 43.0742 2.38157 50.0925 6.43675 55.8466C9.87361 50.2569 14.0469 45.1377 18.8547 40.6313C19.7871 39.7563 20.7367 38.9085 21.7037 38.0878C23.2396 36.7893 24.8269 35.554 26.4656 34.3819C27.8015 33.4287 29.1687 32.5188 30.5672 31.6522C28.5149 29.7893 26.3795 27.9625 24.1783 26.186L19.6455 22.7132L18.9851 22.1981C18.9115 22.1422 18.835 22.09 18.7565 22.0365L18.7564 22.0365C18.7368 22.0231 18.717 22.0096 18.6972 21.996C18.6331 21.952 18.5948 21.923 18.5576 21.8948L18.5573 21.8946C18.537 21.8792 18.517 21.864 18.4932 21.8467C18.4253 21.797 18.3576 21.7469 18.2898 21.6968C18.0908 21.5497 17.8909 21.402 17.6833 21.2593C17.5989 21.1673 17.5227 21.0682 17.4556 20.963C17.2009 20.5627 17.0747 20.094 17.0939 19.6199C17.1131 19.1459 17.2767 18.689 17.5628 18.3104C17.8489 17.9319 18.2438 17.6499 18.6947 17.5022C19.1456 17.3544 19.6309 17.348 20.0855 17.4837L20.4576 17.6294L21.7617 18.1422L25.5047 19.5987L31.6474 22.0295L41.3098 25.8382C42.4914 25.1806 43.6322 24.5686 44.7215 24.0117C46.1219 23.2985 47.4359 22.6823 48.6286 22.1824L48.8463 22.0857C50.8873 21.2383 52.5383 20.7565 53.5961 20.7727C53.9476 20.752 54.2962 20.8468 54.589 21.0424C54.6453 21.3968 54.5816 21.7598 54.408 22.0738C53.9695 23.043 52.8335 24.3335 51.2097 25.8229L51.03 25.9793C50.0727 26.8487 48.9586 27.7789 47.7202 28.7464C46.7537 29.496 45.718 30.273 44.6224 31.0657L44.4831 33.4782L44.203 38.1254L43.4178 50.803L43.3374 52.0273L43.2506 53.426L43.2253 53.8248C43.1561 54.2942 42.9451 54.7312 42.6205 55.0774C42.296 55.4235 41.8734 55.6621 41.4094 55.7613C40.9454 55.8606 40.4622 55.8156 40.0245 55.6325C39.5867 55.4494 39.2154 55.1369 38.9603 54.7369C38.893 54.6308 38.835 54.5192 38.7869 54.4032C38.7777 54.3551 38.7685 54.3069 38.7593 54.2587C38.7515 54.2177 38.7437 54.1767 38.7359 54.1357L38.7356 54.1346C38.6904 53.8969 38.645 53.6587 38.5983 53.4229C38.5905 53.3849 38.5831 53.3466 38.5758 53.3087C38.5716 53.2867 38.5673 53.2648 38.5631 53.2432C38.5585 53.22 38.5539 53.1972 38.5492 53.1749C38.5418 53.1399 38.5339 53.0904 38.5253 53.0362C38.5146 52.9684 38.5027 52.8933 38.4891 52.8305L37.0793 46.4246C36.4172 43.7405 35.6837 41.0934 34.8831 38.5031L34.8802 38.4938L34.1408 38.9647C32.3944 40.077 30.7113 41.2511 29.0924 42.4825C17.0605 51.6347 20.2438 70.8606 35.361 70.8606Z" fill="url(#paint1_linear_456_1341)"/>
</mask>
<g mask="url(#mask0_456_1341)">
<mask id="mask1_456_1341" style="mask-type:alpha" maskUnits="userSpaceOnUse" x="0" y="0" width="71" height="71">
<rect y="0.138672" width="70.722" height="70.722" fill="url(#paint2_radial_456_1341)"/>
</mask>
<g mask="url(#mask1_456_1341)">
<path fill-rule="evenodd" clip-rule="evenodd" d="M52.6089 10.6507L41.794 5.365L44.3484 0.138672H41.9367L39.8473 4.41357L31.1007 0.138672H26.1663L38.8959 6.36023L34.6145 15.1203L19.9064 7.93171L23.7152 0.138672H20.7676L17.5271 6.76885L3.28508 0.138672H0V0.998943L16.5757 8.71552L8.75284 24.7214L0 20.4192V23.6383L7.48426 27.3169L0.242791 42.1333L0 42.0146V48.661L1.67062 45.2428L16.3787 52.4314L7.37144 70.8606H9.78312L14.414 61.3858L25.2288 66.6715L23.1814 70.8606H29.0766L40.6922 47.0946C41.4651 45.5132 43.3736 44.8578 44.955 45.6307L52.9064 49.5169L42.4747 70.8606H44.8864L51.9459 56.4166L59.8787 60.2938L54.7141 70.8606H55.786L60.7439 60.7166L70.722 65.5934V63.7177L52.6859 54.9025L54.8531 50.4684L70.722 58.2243V55.0087L65.9682 52.6853L68.3718 47.587C69.5765 45.0318 68.5025 41.983 65.9624 40.7468L60.8261 38.2474L63.9445 31.8669L70.722 35.1794V32.7678L64.8959 29.9203L70.722 17.9999V13.0655L62.9492 28.9688L52.1345 23.6832L63.5477 0.138672H57.672L52.6089 10.6507ZM51.6574 12.5974L47.376 21.3574L36.5611 16.0717L40.8426 7.31166L51.6574 12.5974ZM66.5661 46.2823L64.0165 51.7314L56.1216 47.8728L59.8743 40.1948L65.3601 42.8699C66.6263 43.4874 67.1631 45.0063 66.5661 46.2823ZM46.4245 23.3041L35.9464 18.1829L41.3034 33.7823L46.4245 23.3041ZM29.2168 14.8939L31.49 21.5132L25.8402 33.0728L11.1321 25.8842L18.9549 9.87837L29.2168 14.8939ZM9.86352 28.4798L2.62205 43.2962L17.3302 50.4847L24.5716 35.6684L9.86352 28.4798ZM26.5183 36.6198L19.2768 51.4361L30.0917 56.7219L35.9337 44.7689C36.7066 43.1875 36.0512 41.279 34.4698 40.5061L26.5183 36.6198ZM29.1402 58.6685L18.3254 53.3828L14.9425 60.3043L25.7574 65.59L29.1402 58.6685ZM27.7869 34.0242L32.4852 24.4113L36.8048 36.9899C37.0244 37.6293 36.3613 38.215 35.7539 37.9181L27.7869 34.0242ZM51.1831 25.6298L61.9978 30.9155L54.175 46.9214L46.2236 43.0351C44.6422 42.2622 43.9868 40.3537 44.7597 38.7723L51.1831 25.6298Z" fill="url(#paint3_radial_456_1341)"/>
</g>
<path style="mix-blend-mode:multiply" opacity="0.3" d="M65.328 -17.0706C70.2326 -6.20547 71.2919 6.00547 68.3317 17.5531C65.3715 29.1008 58.5681 39.2973 49.0408 46.4649C39.5135 53.6326 27.8299 57.3445 15.9124 56.9898C3.99483 56.6351 -7.44674 52.235 -16.5298 44.5135C-13.2962 51.6963 -8.48746 58.0593 -2.45988 63.1313C3.5677 68.2032 10.6596 71.854 18.2903 73.8131C25.921 75.7722 33.895 75.9894 41.6213 74.4486C49.3476 72.9079 56.6282 69.6486 62.9237 64.9123C69.2191 60.1761 74.3681 54.0842 77.9889 47.0882C81.6098 40.0921 83.6098 32.3713 83.8407 24.4976C84.0716 16.624 82.5275 8.7994 79.3228 1.60369C76.1182 -5.59202 71.3351 -11.9744 65.328 -17.0706Z" fill="url(#paint4_linear_456_1341)"/>
<path d="M87.6088 47.9112C89.5325 43.3013 90.7913 38.4556 91.3586 33.5191C91.7779 29.8701 89.2217 29.1453 86.1722 31.1927C82.9172 33.3746 78.5495 31.5494 75.2476 29.4039C71.9458 27.2585 68.2837 24.7336 64.4865 25.6462C59.8654 26.7732 57.9351 32.413 58.1395 37.1627C58.344 41.9124 59.8662 46.7068 58.836 51.3498C57.535 57.2613 51.7327 61.8462 45.6962 61.7526C41.6092 61.6859 37.7865 59.7452 33.7489 59.1184C23.3971 57.5162 20.4809 67.5138 28.6001 73.0805C31.4769 75.0407 34.4544 76.8468 37.52 78.4916C40.1991 79.929 43.2699 80.3968 46.266 80.9135C55.8086 82.5593 67.7879 89.1825 74.7319 84.245C82.8542 78.4697 83.7622 57.108 87.6088 47.9112Z" fill="url(#paint5_linear_456_1341)"/>
<path d="M85.9159 34.9241L85.9159 34.9241C86.0421 34.8394 86.1671 34.7601 86.2909 34.6863L86.2326 34.5885C86.5047 34.4262 86.7713 34.2892 87.0299 34.1779L87.0749 34.2824C87.3644 34.1578 87.6425 34.0664 87.906 34.0079L87.8813 33.8968C88.1989 33.8263 88.4978 33.8017 88.7725 33.8234L88.7635 33.9368C89.0666 33.9607 89.3348 34.0434 89.5626 34.1827L89.622 34.0856C89.8693 34.237 90.0749 34.4522 90.2301 34.7317L90.1305 34.787C90.2545 35.0104 90.346 35.2804 90.3979 35.5991L90.5102 35.5808C90.5538 35.8479 90.57 36.1456 90.5561 36.474L90.4423 36.4692C90.4364 36.6102 90.4247 36.7572 90.4071 36.9104C90.3889 37.0688 90.3699 37.2272 90.3501 37.3854L90.4631 37.3996C90.4234 37.7169 90.3805 38.0337 90.3345 38.3501L90.2218 38.3337C90.1759 38.6494 90.1268 38.9646 90.0745 39.2793L90.1868 39.2979C90.1344 39.6133 90.0789 39.9282 90.0202 40.2425L89.9083 40.2216C89.8497 40.5352 89.788 40.8482 89.7231 41.1605L89.8346 41.1836C89.7696 41.4967 89.7015 41.8091 89.6302 42.1208L89.5192 42.0954C89.4481 42.4064 89.3739 42.7166 89.2966 43.0261L89.407 43.0537C89.3295 43.3639 89.2489 43.6733 89.1652 43.9819L89.0553 43.9521C88.9718 44.2599 88.8852 44.5669 88.7955 44.8731L88.9047 44.9051C88.8149 45.2119 88.7219 45.5178 88.6259 45.8229L88.5173 45.7887C88.4215 46.0929 88.3227 46.3962 88.2207 46.6985L88.3286 46.7349C88.2265 47.0378 88.1213 47.3397 88.0131 47.6407L87.906 47.6022C87.7981 47.9023 87.6872 48.2013 87.5732 48.4994L87.6795 48.5401C87.5654 48.8386 87.4482 49.1361 87.3279 49.4325L87.2225 49.3898C87.1625 49.5375 87.1019 49.685 87.0404 49.8323C86.9823 49.9712 86.9249 50.1132 86.8683 50.2581L86.9743 50.2995C86.8651 50.5787 86.7586 50.8689 86.6543 51.1693L86.5468 51.132C86.4476 51.4176 86.3506 51.7123 86.2554 52.0153L86.364 52.0494C86.2734 52.3377 86.1845 52.6337 86.0969 52.9368L85.9876 52.9052C85.9032 53.1973 85.8201 53.4958 85.7382 53.8003L85.8481 53.8299C85.769 54.1237 85.691 54.423 85.6138 54.7275L85.5035 54.6995C85.4283 54.9957 85.354 55.2967 85.2803 55.602L85.391 55.6287C85.3194 55.9254 85.2484 56.2261 85.1778 56.5306L85.067 56.5049C84.998 56.8023 84.9295 57.1032 84.8613 57.4072L84.9723 57.4322C84.9053 57.7307 84.8386 58.0322 84.772 58.3364L84.6608 58.312C84.5951 58.6118 84.5296 58.9142 84.464 59.2187L84.5753 59.2426C84.5107 59.5431 84.446 59.8457 84.3812 60.1501L84.2698 60.1264C84.2059 60.4267 84.1419 60.7287 84.0776 61.032L84.1889 61.0556C84.1724 61.1337 84.1558 61.2118 84.1392 61.2901C84.092 61.5132 84.0445 61.7371 83.9969 61.9616L83.8855 61.9379C83.8216 62.2392 83.7573 62.5415 83.6926 62.8444L83.8039 62.8682C83.7394 63.1698 83.6745 63.472 83.609 63.7747L83.4978 63.7506C83.4326 64.0518 83.3668 64.3534 83.3004 64.6551L83.4115 64.6796C83.3451 64.9811 83.2781 65.2827 83.2102 65.5842L83.0991 65.5591C83.0313 65.8604 82.9626 66.1615 82.893 66.462L83.0039 66.4877C82.9342 66.7888 82.8636 67.0893 82.792 67.3891L82.6813 67.3626C82.6093 67.6636 82.5364 67.9637 82.4623 68.2626L82.5728 68.29C82.4982 68.5908 82.4224 68.8905 82.3454 69.1888L82.2352 69.1603C82.1578 69.4601 82.0791 69.7583 81.999 70.0547L82.1089 70.0844C82.028 70.3835 81.9457 70.6807 81.8619 70.9758L81.7524 70.9447C81.6675 71.2435 81.581 71.5401 81.4928 71.834L81.6019 71.8667C81.5124 72.1648 81.4212 72.4603 81.328 72.7528L81.2196 72.7183C81.1253 73.0142 81.0292 73.307 80.9309 73.5963L81.0387 73.6329C80.9386 73.9276 80.8364 74.2187 80.7319 74.5058L80.6249 74.4669C80.5186 74.7588 80.41 75.0466 80.2988 75.3298L80.4048 75.3714C80.2904 75.6628 80.1734 75.9493 80.0535 76.2307L79.9487 76.1861C79.8265 76.4731 79.7012 76.7545 79.5729 77.03L79.6761 77.0781C79.5437 77.3621 79.4081 77.6398 79.2689 77.9108L79.1677 77.8588C79.0251 78.1363 78.8789 78.4065 78.7289 78.6689L78.8277 78.7254C78.6719 78.9979 78.5119 79.2621 78.3475 79.5174L78.2518 79.4558C78.0829 79.718 77.9094 79.9707 77.7311 80.213L77.8228 80.2805C77.6365 80.5336 77.4448 80.7758 77.2476 81.0063L77.1611 80.9323C76.9588 81.1686 76.7507 81.3923 76.5365 81.6025L76.6162 81.6837C76.3924 81.9033 76.1618 82.1086 75.9241 82.2986L75.8531 82.2096C75.734 82.3049 75.6131 82.3961 75.4904 82.4834C75.3717 82.5678 75.2506 82.6489 75.1272 82.727L75.188 82.8232C74.9392 82.9805 74.6811 83.1252 74.4143 83.258L74.3636 83.1561C74.1044 83.2851 73.8366 83.4027 73.561 83.5096L73.6021 83.6158C73.3298 83.7214 73.0499 83.8166 72.7631 83.9019L72.7306 83.7928C72.4535 83.8753 72.1697 83.9485 71.8796 84.0131L71.9043 84.1242C71.6194 84.1876 71.3286 84.2427 71.0323 84.29L71.0144 84.1776C70.7281 84.2233 70.4365 84.2617 70.1401 84.2932L70.1521 84.4064C69.8615 84.4373 69.5664 84.4617 69.2672 84.4799L69.2602 84.3663C68.9699 84.384 68.6755 84.396 68.3774 84.4025L68.3799 84.5163C68.0873 84.5227 67.7912 84.524 67.492 84.5205L67.4933 84.4067C67.2016 84.4033 66.9068 84.3953 66.6092 84.3832L66.6045 84.4969C66.3116 84.4849 66.016 84.4689 65.7181 84.4492L65.7256 84.3356C65.4337 84.3163 65.1394 84.2934 64.8431 84.2672L64.8331 84.3806C64.5405 84.3547 64.2459 84.3257 63.9497 84.2938L63.9619 84.1807C63.6701 84.1493 63.3767 84.1151 63.0819 84.0785L63.0679 84.1915C62.7757 84.1552 62.4822 84.1164 62.1877 84.0756L62.2033 83.9628C61.9119 83.9224 61.6194 83.8799 61.326 83.8356L61.309 83.9481C61.0173 83.904 60.7248 83.8582 60.4317 83.8108L60.4499 83.6985C60.1587 83.6514 59.867 83.6029 59.5748 83.5531L59.5557 83.6653C59.2644 83.6157 58.9727 83.5649 58.6809 83.5131L58.7008 83.4011C58.4098 83.3494 58.1187 83.2969 57.8276 83.2436L57.8071 83.3556C57.516 83.3024 57.2249 83.2485 56.9342 83.1942L56.9551 83.0823C56.664 83.0279 56.3732 82.9731 56.0829 82.9182L56.0618 83.0301C55.7704 82.975 55.4795 82.9197 55.1894 82.8646L55.2107 82.7528L55.1872 82.7483C54.9034 82.6944 54.6203 82.6406 54.3381 82.5872L54.317 82.6991C54.025 82.6438 53.734 82.589 53.4442 82.5348L53.4651 82.423C53.1726 82.3683 52.8813 82.3144 52.5914 82.2614L52.571 82.3734C52.2781 82.3199 51.9866 82.2674 51.697 82.2162L51.7168 82.1041C51.423 82.0522 51.1309 82.0016 50.8409 81.9527L50.822 82.065C50.5276 82.0154 50.2355 81.9675 49.9457 81.9216L49.9634 81.8092C49.6678 81.7624 49.3746 81.7177 49.0842 81.6755L49.0678 81.7882C48.7716 81.7451 48.4783 81.7047 48.1882 81.6672L48.2028 81.5543C48.0557 81.5353 47.9094 81.517 47.7639 81.4995C47.6134 81.4814 47.4629 81.463 47.3123 81.4442L47.2982 81.5571C46.9972 81.5194 46.6959 81.4799 46.3949 81.4378L46.4107 81.3251C46.1106 81.2831 45.8108 81.2386 45.5118 81.1907L45.4938 81.3031C45.1938 81.2551 44.8944 81.2036 44.596 81.148L44.6169 81.0361C44.319 80.9806 44.0224 80.9209 43.7274 80.8563L43.703 80.9675C43.4059 80.9024 43.1104 80.8323 42.8167 80.7564L42.8452 80.6462C42.5523 80.5705 42.2614 80.4889 41.973 80.4008L41.9398 80.5096C41.6491 80.4207 41.3608 80.3252 41.0753 80.2221L41.114 80.115C40.8303 80.0125 40.5495 79.9026 40.272 79.7844L40.2274 79.8891C39.9484 79.7702 39.6727 79.643 39.4007 79.5066L39.4517 79.4049C39.3172 79.3374 39.1837 79.2678 39.0511 79.1958C38.9205 79.1248 38.79 79.0535 38.6598 78.9819L38.605 79.0817C38.3441 78.9382 38.084 78.7935 37.8246 78.6475L37.8804 78.5483C37.6213 78.4025 37.363 78.2553 37.1054 78.1069L37.0486 78.2055C36.7907 78.0569 36.5335 77.907 36.2771 77.7558L36.3349 77.6577C36.0788 77.5067 35.8235 77.3544 35.569 77.2008L35.5102 77.2983C35.2553 77.1445 35.0012 76.9895 34.7479 76.8331L34.8076 76.7363C34.5547 76.5802 34.3024 76.4228 34.051 76.2641L33.9903 76.3604C33.7385 76.2015 33.4876 76.0414 33.2375 75.88L33.2992 75.7843C33.0494 75.6232 32.8004 75.4607 32.5522 75.297L32.4895 75.3921C32.241 75.2282 31.9934 75.063 31.7465 74.8967L31.8101 74.8023C31.6869 74.7192 31.5638 74.6358 31.441 74.5521C31.3116 74.4634 31.1854 74.3734 31.0624 74.2823L30.9946 74.3738C30.7396 74.185 30.4979 73.9912 30.2693 73.7931L30.3438 73.7071C30.1067 73.5016 29.884 73.2915 29.6754 73.0777L29.5939 73.1572C29.3714 72.9291 29.1648 72.6967 28.9738 72.4609L29.0622 72.3892C28.8645 72.1452 28.6837 71.8975 28.5198 71.6475L28.4246 71.7099C28.2508 71.4449 28.0955 71.177 27.9584 70.9076L28.0598 70.856C27.9176 70.5765 27.7954 70.2956 27.6927 70.0145L27.5858 70.0536C27.4772 69.7564 27.39 69.4589 27.3239 69.1628L27.435 69.138C27.3672 68.8344 27.322 68.5324 27.2989 68.234L27.1855 68.2428C27.1611 67.9286 27.1608 67.6181 27.1841 67.3132L27.2976 67.3218C27.3209 67.0154 27.3685 66.7149 27.4397 66.4226L27.3292 66.3957C27.403 66.0928 27.5018 65.7983 27.625 65.5145L27.7294 65.5599C27.8501 65.2821 27.9946 65.0149 28.1626 64.7604L28.0676 64.6977C28.2367 64.4414 28.4291 64.1979 28.6443 63.9693L28.7271 64.0473C28.9321 63.8295 29.1582 63.6255 29.4051 63.4372L29.3361 63.3467C29.5766 63.1633 29.8362 62.9947 30.1147 62.8427L30.1692 62.9426C30.4297 62.8004 30.7072 62.6728 31.0014 62.5614L30.9611 62.455C31.2419 62.3487 31.5375 62.257 31.8475 62.1812L31.8745 62.2918C32.1631 62.2212 32.4647 62.1646 32.7789 62.1231L32.764 62.0102C33.0617 61.9709 33.3704 61.9449 33.69 61.9331L33.6942 62.0469C33.9908 62.036 34.297 62.0374 34.6128 62.0521L34.618 61.9384C34.9185 61.9523 35.2272 61.978 35.5442 62.0162L35.5306 62.1292C35.6829 62.1475 35.8372 62.1687 35.9934 62.1929C36.1439 62.2162 36.294 62.2417 36.444 62.2689L36.4643 62.1569C36.7658 62.2117 37.0661 62.2739 37.3654 62.3418L37.3402 62.4528C37.6375 62.5202 37.934 62.5934 38.23 62.6707L38.2588 62.5605C38.5552 62.6379 38.8509 62.7192 39.1461 62.803L39.115 62.9125C39.4093 62.996 39.7032 63.0819 39.9972 63.1687L40.0295 63.0595C40.1703 63.1011 40.3111 63.1428 40.4518 63.1845C40.6051 63.2299 40.7583 63.2753 40.9115 63.3205L40.8793 63.4297C41.1739 63.5165 41.4688 63.6026 41.764 63.6861L41.795 63.5766C42.0905 63.6602 42.3863 63.7413 42.6826 63.8181L42.654 63.9283C42.9523 64.0057 43.2514 64.079 43.5515 64.1463L43.5764 64.0353C43.8761 64.1025 44.1765 64.1639 44.4779 64.2176L44.458 64.3296C44.7619 64.3838 45.0671 64.4303 45.3738 64.4673L45.3874 64.3543C45.6914 64.3911 45.9967 64.4185 46.3035 64.435L46.2974 64.5486C46.4516 64.5569 46.6063 64.5624 46.7614 64.5649L46.7615 64.5649C46.9098 64.5672 47.0598 64.5649 47.2114 64.558L47.2062 64.4443C47.4948 64.4313 47.7892 64.4018 48.0884 64.3567L48.1053 64.4693C48.3956 64.4256 48.6899 64.3675 48.9871 64.2959L48.9604 64.1853C49.2425 64.1174 49.5274 64.0372 49.8142 63.9455L49.8489 64.054C50.1289 63.9645 50.4105 63.8642 50.6929 63.7538L50.6515 63.6478C50.9232 63.5416 51.1957 63.426 51.4681 63.3016L51.5154 63.4051C51.7838 63.2826 52.052 63.1516 52.3194 63.0129L52.267 62.9118C52.5272 62.7768 52.7867 62.6343 53.0447 62.4849L53.1017 62.5833C53.3576 62.4351 53.6121 62.2802 53.8644 62.1191L53.8031 62.0231C54.0516 61.8645 54.2979 61.6997 54.5416 61.5295L54.6068 61.6228C54.85 61.4528 55.0906 61.2774 55.3277 61.097L55.2588 61.0064C55.4943 60.8273 55.7264 60.6432 55.9546 60.4548L56.0271 60.5426C56.2568 60.3529 56.4825 60.1587 56.7035 59.9607L56.6275 59.8759C56.8488 59.6775 57.0654 59.4752 57.2766 59.2695L57.3561 59.3511C57.5705 59.1422 57.7794 58.9298 57.9821 58.7145L57.8992 58.6365C58.1036 58.4194 58.3016 58.1993 58.4925 57.9767L58.5789 58.0508C58.775 57.8222 58.9637 57.5909 59.1443 57.3576L59.0542 57.288C59.2376 57.0511 59.4123 56.8123 59.5778 56.572L59.6715 56.6366C59.8435 56.3869 60.0055 56.1356 60.1566 55.8834L60.059 55.8249C60.2138 55.5666 60.357 55.3076 60.4876 55.0486L60.5892 55.0998C60.7268 54.8269 60.8508 54.5538 60.9599 54.2812L60.8542 54.2389C60.9666 53.9581 61.0629 53.6782 61.1418 53.4003L61.2513 53.4314C61.2927 53.2856 61.3295 53.1403 61.3614 52.9954C61.3949 52.8443 61.4254 52.693 61.4532 52.5416L61.3412 52.5211C61.3965 52.2193 61.4405 51.9168 61.4745 51.6137L61.5876 51.6263C61.622 51.3197 61.6463 51.0126 61.6618 50.7051L61.5481 50.6994C61.5634 50.3943 61.5701 50.0886 61.5693 49.7824L61.6831 49.7821C61.6823 49.4751 61.6741 49.1678 61.6599 48.8602L61.5462 48.8655C61.5321 48.5607 61.5119 48.2555 61.4871 47.95L61.6005 47.9408C61.5757 47.6355 61.5462 47.3301 61.5133 47.0245L61.4001 47.0367C61.3674 46.7333 61.3314 46.4296 61.2932 46.1257L61.4061 46.1115C61.368 45.808 61.3277 45.5043 61.2866 45.2008L61.1738 45.2161C61.1454 45.0062 61.1166 44.7962 61.0878 44.5862C61.075 44.4932 61.0622 44.4001 61.0495 44.3071L61.1623 44.2917C61.1208 43.9887 61.0797 43.6859 61.0402 43.3832L60.9274 43.3979C60.8878 43.0944 60.8498 42.7909 60.8147 42.4874L60.9278 42.4744C60.8927 42.1709 60.8604 41.8676 60.8322 41.5646L60.7189 41.5751C60.6906 41.2701 60.6664 40.9652 60.6475 40.6606L60.7611 40.6535C60.7517 40.5015 60.7437 40.3495 60.7372 40.1976C60.7307 40.0479 60.7266 39.8971 60.725 39.7455L60.6112 39.7467C60.6078 39.4452 60.6139 39.1407 60.6296 38.8347L60.7433 38.8406C60.7587 38.5406 60.7834 38.2393 60.8175 37.9383L60.7044 37.9254C60.7386 37.6237 60.7822 37.3222 60.8354 37.0225L60.9474 37.0424C61.0002 36.745 61.0625 36.4494 61.1344 36.1572L61.0238 36.13C61.0968 35.8335 61.1796 35.5403 61.2725 35.2522L61.3808 35.2871C61.4738 34.9984 61.577 34.7149 61.6903 34.4382L61.585 34.395C61.7013 34.1113 61.8283 33.8345 61.9661 33.5663L62.0674 33.6183C62.2061 33.3485 62.3559 33.0878 62.5169 32.8378L62.4212 32.7762C62.5875 32.5181 62.7657 32.2711 62.9561 32.0373L63.0443 32.1092C63.2349 31.875 63.4377 31.6545 63.6527 31.4494L63.5742 31.367C63.795 31.1565 64.0287 30.9618 64.2757 30.785L64.3419 30.8776C64.5838 30.7045 64.8383 30.5489 65.1059 30.413L65.0543 30.3115C65.3221 30.1754 65.6028 30.0585 65.8965 29.9627L65.9318 30.0709C66.0723 30.0251 66.2159 29.9842 66.3626 29.9484C66.504 29.9144 66.6451 29.8859 66.786 29.8624L66.7673 29.7502C67.06 29.7015 67.3519 29.6746 67.6426 29.6673L67.6454 29.781C67.9344 29.7738 68.2225 29.7862 68.5096 29.8162L68.5214 29.703C68.8121 29.7333 69.1015 29.7814 69.3895 29.8448L69.365 29.956C69.6456 30.0178 69.9252 30.0945 70.2037 30.1841L70.2385 30.0757C70.5155 30.1648 70.791 30.2664 71.065 30.3784L71.0219 30.4837C71.2889 30.5929 71.5547 30.7121 71.8191 30.8395L71.8686 30.737C72.1312 30.8636 72.3923 30.9981 72.6517 31.1386L72.5975 31.2387C72.8531 31.3772 73.1073 31.5217 73.36 31.6704L73.4177 31.5723C73.6703 31.721 73.9212 31.8739 74.1702 32.029L74.11 32.1256C74.359 32.2807 74.6063 32.4381 74.8518 32.5962L74.9134 32.5005C75.1616 32.6604 75.4078 32.8207 75.6519 32.9798L75.5898 33.0752C75.7132 33.1555 75.8361 33.2357 75.9585 33.3152C76.081 33.3947 76.205 33.4738 76.3306 33.5522L76.3909 33.4556C76.637 33.6092 76.8889 33.7601 77.1454 33.9064L77.089 34.0053C77.3437 34.1506 77.6031 34.2914 77.8662 34.4262L77.9181 34.3249C78.1789 34.4585 78.4431 34.5861 78.71 34.7059L78.6634 34.8097C78.9337 34.9311 79.2068 35.0447 79.4817 35.1487L79.522 35.0423C79.798 35.1467 80.0757 35.2415 80.3539 35.3247L80.3213 35.4337C80.6077 35.5194 80.8951 35.5931 81.1822 35.6529L81.2054 35.5414C81.4956 35.6018 81.7854 35.6478 82.0734 35.6773L82.0618 35.7905C82.3607 35.8211 82.6583 35.8343 82.9533 35.8278L82.9508 35.714C83.2457 35.7075 83.5375 35.681 83.8249 35.6323L83.8439 35.7445C84.1383 35.6945 84.4284 35.6216 84.7128 35.5233L84.6756 35.4157C84.9488 35.3213 85.2164 35.2031 85.4771 35.0588L85.5322 35.1584C85.6618 35.0867 85.7898 35.0087 85.9159 34.9241Z" stroke="url(#paint6_linear_456_1341)" stroke-width="0.227646" stroke-dasharray="0.91 0.91"/>
<path d="M-9.11028 20.6862C-10.4238 24.1596 -11.2247 27.7876 -11.4975 31.4617C-11.7013 34.2068 -9.74585 34.6512 -7.48086 33.0321C-5.07688 31.3162 -1.69838 32.5361 0.880288 34.0257C3.45896 35.5153 6.32363 37.2751 9.18053 36.4835C12.6567 35.5079 13.9427 31.2699 13.6346 27.7562C13.3265 24.2426 12.0153 20.7359 12.6492 17.2639C13.448 12.8435 17.7109 9.26954 22.3022 9.15554C25.4108 9.08076 28.3788 10.4028 31.4679 10.7446C39.3877 11.6175 41.2829 4.12001 34.9326 0.241404C33.3244 -0.734538 31.6797 -1.65056 30.0019 -2.50484C26.6314 -4.22105 22.751 -4.85035 19.0434 -3.94401C13.6234 -2.61904 8.52211 -0.209848 4.07302 3.15342C-1.91506 7.68008 -6.48211 13.7539 -9.11028 20.6862Z" fill="url(#paint7_linear_456_1341)"/>
<path d="M-10.7937 17.5409C-10.6812 17.2545 -10.5653 16.9695 -10.4462 16.6861L-10.3407 16.7286C-10.2217 16.4456 -10.0995 16.1641 -9.97398 15.8843L-10.0784 15.8393C-9.95244 15.5584 -9.82316 15.279 -9.69065 15.0013L-9.58731 15.0486C-9.45505 14.7715 -9.31956 14.4959 -9.18088 14.2221L-9.28302 14.1723C-9.14379 13.8974 -9.00136 13.6243 -8.85575 13.3528L-8.75486 13.405C-8.60957 13.1342 -8.46112 12.8652 -8.30954 12.598L-8.40913 12.5434C-8.25702 12.2753 -8.10177 12.009 -7.94342 11.7445L-7.84519 11.8014C-7.68722 11.5376 -7.52616 11.2757 -7.36204 11.0156L-7.45885 10.9564C-7.2942 10.6956 -7.12649 10.4367 -6.95574 10.1798L-6.86039 10.2412C-6.69012 9.98499 -6.51682 9.73074 -6.34054 9.47851L-6.43437 9.41483C-6.25757 9.16187 -6.07778 8.91094 -5.89504 8.6621L-5.80278 8.72798C-5.6206 8.47989 -5.43546 8.23388 -5.24742 7.98999L-5.33806 7.92196C-5.14952 7.67743 -4.95807 7.43503 -4.76374 7.19481L-4.67478 7.26496C-4.48111 7.02556 -4.28458 6.78833 -4.08522 6.55333L-4.17246 6.4811C-3.97264 6.24554 -3.76998 6.01221 -3.56452 5.78115L-3.47904 5.8554C-3.27432 5.62518 -3.06683 5.39722 -2.85658 5.17158L-2.94025 5.09533C-2.7296 4.86925 -2.51621 4.64549 -2.3001 4.4241L-2.21829 4.50229C-2.00302 4.28176 -1.78505 4.06358 -1.56443 3.84781L-1.64434 3.76771C-1.42332 3.55156 -1.19965 3.33781 -0.973342 3.12652L-0.895373 3.20847C-0.670062 2.99811 -0.442142 2.79019 -0.211647 2.58475L-0.287635 2.50099C-0.0568002 2.29525 0.176607 2.092 0.412552 1.8913L0.486518 1.97682C0.721412 1.777 0.958828 1.57971 1.19873 1.38499L1.12682 1.29776C1.36693 1.10287 1.60952 0.910551 1.85455 0.720852L1.92436 0.809745C2.0464 0.715271 2.16904 0.621449 2.29228 0.528282C2.41102 0.438521 2.53023 0.349442 2.64989 0.261046L2.58217 0.170571C2.82238 -0.00686703 3.06443 -0.181557 3.30828 -0.353477L3.37391 -0.261496C3.61729 -0.433083 3.86245 -0.601906 4.10936 -0.767943L4.04585 -0.861382C4.2937 -1.02805 4.54329 -1.19192 4.79459 -1.35297L4.85596 -1.25812C5.1067 -1.41881 5.35913 -1.57669 5.61321 -1.73174L5.55402 -1.82795C5.80898 -1.98353 6.06559 -2.13627 6.3238 -2.28614L6.38079 -2.18862C6.63838 -2.33813 6.89756 -2.48477 7.15829 -2.62854L7.10352 -2.72732C7.36507 -2.87154 7.62817 -3.01287 7.89277 -3.15129L7.94529 -3.0513C8.20918 -3.18935 8.47457 -3.3245 8.74141 -3.45673L8.69117 -3.55788C8.95878 -3.69049 9.22783 -3.82016 9.49829 -3.94689L9.54623 -3.84463C9.81589 -3.97099 10.0869 -4.0944 10.3593 -4.21485L10.3137 -4.31816C10.5868 -4.43893 10.8613 -4.55673 11.1371 -4.67153L11.1803 -4.56722C11.4552 -4.68167 11.7314 -4.79313 12.0088 -4.9016L11.9679 -5.00686C12.246 -5.11559 12.5253 -5.2213 12.8058 -5.32399L12.8444 -5.21783C13.1239 -5.32017 13.4047 -5.4195 13.6865 -5.5158L13.6504 -5.6228C13.9328 -5.71931 14.2165 -5.81277 14.5012 -5.90317L14.5349 -5.79537C14.8186 -5.88545 15.1033 -5.97248 15.3891 -6.05644L15.3578 -6.16497C15.6441 -6.2491 15.9315 -6.33016 16.2198 -6.40812L16.2487 -6.2989C16.5359 -6.37656 16.8241 -6.45115 17.1132 -6.52264L17.0867 -6.63249C17.3763 -6.70411 17.6669 -6.77263 17.9583 -6.83803L17.9823 -6.7276C18.1275 -6.76018 18.2728 -6.79199 18.4184 -6.82301C18.5631 -6.85384 18.708 -6.88195 18.8531 -6.90739L18.8345 -7.01889C19.1288 -7.07048 19.4239 -7.11113 19.7194 -7.14115L19.7297 -7.0285C20.0237 -7.05836 20.3181 -7.0776 20.6123 -7.08648L20.6102 -7.19967C20.9078 -7.20866 21.2053 -7.20715 21.5022 -7.19544L21.4963 -7.08229C21.7908 -7.07067 22.0846 -7.04893 22.3774 -7.01735L22.3911 -7.12993C22.6862 -7.0981 22.9803 -7.05635 23.2728 -7.00499L23.2515 -6.89348C23.541 -6.84264 23.829 -6.78229 24.115 -6.71271L24.1435 -6.82271C24.4312 -6.75272 24.7168 -6.67349 25 -6.58529L24.9645 -6.47723C25.2446 -6.39 25.5222 -6.29392 25.7969 -6.18927L25.8391 -6.29502C26.1152 -6.18986 26.3883 -6.07613 26.658 -5.95412L26.6095 -5.85102C26.743 -5.79062 26.8757 -5.72816 27.0075 -5.6637C27.1359 -5.60089 27.2641 -5.53773 27.3922 -5.4742L27.4444 -5.57557C27.7009 -5.44832 27.9566 -5.31964 28.2116 -5.18954L28.1582 -5.08875C28.4128 -4.95883 28.6667 -4.82749 28.9197 -4.69473L28.9742 -4.79493C29.2277 -4.66197 29.4803 -4.52759 29.7322 -4.39179L29.6766 -4.29219C29.9281 -4.1566 30.1788 -4.0196 30.4287 -3.88119L30.4855 -3.98017C30.7357 -3.84156 30.9852 -3.70154 31.2339 -3.56012L31.176 -3.46176C31.4243 -3.32056 31.6718 -3.17796 31.9184 -3.03397L31.9774 -3.13169C32.2244 -2.98749 32.4705 -2.8419 32.7158 -2.69493L32.6558 -2.59786C32.7782 -2.52451 32.9004 -2.45082 33.0224 -2.37678C33.1585 -2.29367 33.2907 -2.2089 33.4191 -2.1226L33.4841 -2.21652C33.7532 -2.03561 34.0058 -1.84792 34.2421 -1.65455L34.1685 -1.56693C34.4171 -1.36347 34.6473 -1.15378 34.8592 -0.939185L34.9415 -1.01885C35.1693 -0.788196 35.3766 -0.551769 35.5636 -0.311126L35.4726 -0.241408C35.6681 0.0100676 35.8409 0.265989 35.9915 0.52449L36.0908 0.467047C36.2538 0.746873 36.3914 1.02996 36.504 1.31406L36.3974 1.3565C36.5141 1.65092 36.6033 1.94612 36.6655 2.23949L36.7775 2.21495C36.8443 2.52949 36.8808 2.84234 36.8878 3.15046L36.7734 3.15433C36.7805 3.46676 36.7563 3.77388 36.7017 4.0724L36.8143 4.0913C36.7571 4.40398 36.6672 4.70777 36.5455 4.999L36.4398 4.95675C36.3215 5.23981 36.1721 5.51071 35.9924 5.76594L36.086 5.82996C35.9063 6.08518 35.697 6.3251 35.4588 6.54637L35.381 6.46422C35.1597 6.66983 34.9124 6.8592 34.6397 7.02942L34.6999 7.12502C34.4384 7.28815 34.1544 7.43388 33.8483 7.5598L33.8055 7.4553C33.5268 7.5699 33.2291 7.66795 32.9125 7.74747L32.9394 7.85722C32.6429 7.93169 32.3306 7.99008 32.0026 8.03091L31.9896 7.91855C31.6886 7.95601 31.374 7.97851 31.0459 7.9848L31.0467 8.09802C30.7415 8.10387 30.425 8.09584 30.0975 8.073L30.1069 7.96003C29.9513 7.94919 29.7931 7.93496 29.6324 7.91725C29.479 7.90028 29.3259 7.88086 29.173 7.8593L29.1555 7.97141C28.8479 7.92804 28.5414 7.87607 28.2358 7.81786L28.2586 7.70664C27.9553 7.64888 27.6525 7.58491 27.3499 7.51703L27.3234 7.62749C27.0206 7.55956 26.7184 7.48781 26.4164 7.41456L26.4449 7.30455C26.2489 7.25703 26.0533 7.20892 25.8575 7.16078C25.7519 7.13479 25.6462 7.1088 25.5403 7.08287L25.5116 7.19282C25.2097 7.11886 24.9078 7.04575 24.6056 6.97584L24.6329 6.86555C24.329 6.79522 24.0245 6.72804 23.7193 6.66642L23.6951 6.77739C23.3899 6.71577 23.0841 6.65978 22.7776 6.61184L22.7968 6.49997C22.4872 6.45154 22.1765 6.4112 21.8644 6.38146L21.8521 6.49418C21.5426 6.46467 21.2319 6.4457 20.92 6.4397L20.9236 6.32648C20.7666 6.32346 20.6091 6.32369 20.4512 6.32749L20.4512 6.32749C20.2871 6.33157 20.1234 6.34 19.9603 6.35269L19.9679 6.46559C19.6443 6.49075 19.323 6.53284 19.0049 6.59093L18.9854 6.47957C18.6625 6.53855 18.343 6.61382 18.0281 6.7044L18.0588 6.81312C17.7472 6.90276 17.44 7.00761 17.1385 7.1267L17.0972 7.02159C16.7921 7.14205 16.4929 7.27692 16.2004 7.42523L16.2517 7.52589C15.9624 7.67257 15.68 7.83257 15.4054 8.00493L15.345 7.90949C15.0673 8.08377 14.7977 8.27055 14.5372 8.46888L14.6062 8.55835C14.3482 8.75476 14.0993 8.96262 13.8605 9.18099L13.7834 9.09823C13.5416 9.31935 13.3101 9.55115 13.0901 9.79267L13.1747 9.86796C12.9565 10.1074 12.7498 10.3565 12.5556 10.6143L12.4642 10.5473C12.2673 10.8086 12.0832 11.0788 11.913 11.3569L12.0106 11.4148C11.842 11.6903 11.6872 11.9736 11.5475 12.2637L11.4443 12.216C11.3028 12.5098 11.1764 12.8106 11.0664 13.1173L11.1742 13.1541C11.0658 13.4565 10.9736 13.7647 10.8986 14.0777L10.7873 14.0528C10.7495 14.2108 10.716 14.37 10.6871 14.5303M-10.7937 17.5409L10.7997 14.549M-10.7937 17.5409L-10.6871 17.5809C-10.7431 17.7236 -10.7983 17.8666 -10.8527 18.01L-10.9598 17.9714L-10.8527 18.01C-10.9071 18.1538 -10.9606 18.2979 -11.0132 18.4422L-11.1208 18.4049L-10.7937 17.5409ZM10.6871 14.5303C10.6871 14.5303 10.6871 14.5302 10.6871 14.5301L10.7997 14.549M10.6871 14.5303L10.7997 14.549M10.6871 14.5303C10.6602 14.6776 10.6368 14.8249 10.6166 14.9722L10.73 14.9862C10.7499 14.8404 10.7731 14.6947 10.7997 14.549M7.30142 33.6596C7.44279 33.62 7.58039 33.5748 7.71429 33.5244L7.75384 33.6302C7.61668 33.6818 7.47576 33.7281 7.33104 33.7687M7.30142 33.6596C7.15909 33.6991 7.01675 33.732 6.87441 33.7589L6.89455 33.8701C7.04004 33.8427 7.18555 33.809 7.33104 33.7687M7.30142 33.6596C7.3013 33.6597 7.30117 33.6597 7.30105 33.6597L7.33104 33.7687M7.30142 33.6596L7.33104 33.7687M10.6467 15.8662L10.5324 15.8615C10.5162 16.1585 10.5114 16.4555 10.5161 16.7525L10.6305 16.7494C10.6259 16.4548 10.6306 16.1604 10.6467 15.8662ZM10.6709 17.6312L10.5568 17.6407C10.5785 17.9352 10.6078 18.2296 10.643 18.524L10.7566 18.5094C10.7216 18.2165 10.6925 17.9237 10.6709 17.6312ZM10.8763 19.3832L10.7632 19.4015C10.8076 19.6923 10.856 19.9832 10.9068 20.2739L11.0195 20.2534C10.9689 19.9632 10.9206 19.6731 10.8763 19.3832ZM11.176 21.1212L11.0635 21.1428C11.0836 21.2519 11.1038 21.3608 11.1239 21.4698C11.1573 21.6498 11.1906 21.8297 11.2236 22.0098L11.3361 21.9883C11.3031 21.808 11.2698 21.6277 11.2364 21.4475C11.2162 21.3387 11.1961 21.23 11.176 21.1212ZM11.4903 22.8566L11.3775 22.8767C11.4268 23.1662 11.4734 23.4557 11.5156 23.745L11.6288 23.7275C11.5864 23.4371 11.5397 23.1468 11.4903 22.8566ZM11.7416 24.6024L11.6279 24.616C11.6439 24.7615 11.6584 24.907 11.6711 25.0525C11.6837 25.1956 11.6936 25.34 11.7007 25.4854L11.815 25.4785C11.8078 25.3318 11.7978 25.186 11.7851 25.0414C11.7723 24.895 11.7577 24.7487 11.7416 24.6024ZM11.8255 26.356L11.7112 26.3545C11.7039 26.6431 11.6861 26.9331 11.6573 27.2226L11.7712 27.2324C11.8002 26.9401 11.8182 26.6473 11.8255 26.356ZM11.6511 28.1031L11.5384 28.0848C11.4874 28.3717 11.4252 28.6559 11.3515 28.9353L11.4621 28.9627C11.5367 28.6802 11.5996 28.393 11.6511 28.1031ZM11.1996 29.8037L11.092 29.7665C10.9918 30.0419 10.8791 30.31 10.7537 30.5686L10.8567 30.6166C10.984 30.3543 11.0981 30.0826 11.1996 29.8037ZM10.4257 31.3882L10.3293 31.3284C10.1713 31.575 9.9991 31.8087 9.81251 32.0272L9.89951 32.0997C10.0897 31.877 10.265 31.639 10.4257 31.3882ZM9.27412 32.7277L9.19989 32.6424C8.98048 32.8302 8.74581 32.9998 8.49549 33.1487L8.55355 33.2456C8.8098 33.0932 9.04986 32.9196 9.27412 32.7277ZM6.00568 33.9633L6.00421 33.8501C5.7125 33.8572 5.42079 33.8418 5.12931 33.8068L5.11422 33.9193C5.41074 33.9548 5.70801 33.9706 6.00568 33.9633ZM4.23761 33.7587L4.26613 33.6488C3.98436 33.5803 3.70318 33.4962 3.42283 33.3994L3.38403 33.5064C3.66734 33.6042 3.95197 33.6893 4.23761 33.7587ZM2.55505 33.1849L2.60147 33.0809C2.33314 32.9661 2.06602 32.8421 1.80034 32.7114L1.74848 32.813C2.01566 32.9444 2.2846 33.0692 2.55505 33.1849ZM0.959742 32.4056L1.01532 32.306C0.755494 32.1661 0.497486 32.0222 0.241456 31.8768L0.183663 31.9752C0.440179 32.1209 0.69896 32.2652 0.959742 32.4056ZM-0.58551 31.533L-0.526874 31.435L-0.606988 31.3886C-0.708602 31.3298 -0.809862 31.2711 -0.910675 31.2129C-1.03783 31.1394 -1.16693 31.0666 -1.29779 30.9948L-1.35418 31.094C-1.22406 31.1654 -1.09567 31.2378 -0.969199 31.3109C-0.867552 31.3696 -0.765461 31.4287 -0.662944 31.4881C-0.637158 31.503 -0.611348 31.518 -0.58551 31.533ZM-2.1396 30.6863L-2.08801 30.5846C-2.35398 30.4547 -2.62506 30.3307 -2.8997 30.215L-2.94555 30.3193C-2.673 30.4341 -2.40384 30.5572 -2.1396 30.6863ZM-3.77294 30.0015L-3.73412 29.8946C-4.01842 29.7964 -4.30495 29.709 -4.59208 29.6351L-4.62212 29.7447C-4.33823 29.8178 -4.05463 29.9042 -3.77294 30.0015ZM-5.49179 29.5646L-5.47294 29.4527C-5.77458 29.4064 -6.07529 29.3776 -6.37312 29.3693L-6.37767 29.4825C-6.0851 29.4906 -5.78918 29.5189 -5.49179 29.5646ZM-7.26733 29.5246L-7.2807 29.4123C-7.58388 29.4511 -7.8818 29.5158 -8.17211 29.6098L-8.13772 29.7174C-7.85474 29.6258 -7.5639 29.5626 -7.26733 29.5246ZM-8.95381 30.0765L-9.00994 29.9785C-9.1413 30.0532 -9.27025 30.1355 -9.39653 30.2256L-9.3966 30.2257C-9.5362 30.3255 -9.67441 30.4172 -9.8108 30.5007L-9.75141 30.5968C-9.61257 30.5117 -9.47207 30.4185 -9.33035 30.3172C-9.20731 30.2294 -9.08172 30.1493 -8.95381 30.0765ZM-10.6568 31.0465L-10.6961 30.9406C-11.0373 31.0681 -11.3553 31.1347 -11.6418 31.1422L-11.6402 31.2554C-11.3382 31.2476 -11.0074 31.1775 -10.6568 31.0465ZM-12.5975 31.0062L-12.5329 30.9119C-12.7685 30.7554 -12.9572 30.5154 -13.0816 30.1833L-13.1889 30.2238C-13.0575 30.5746 -12.8553 30.8348 -12.5975 31.0062ZM-13.3601 29.2463L-13.2457 29.242C-13.2498 29.089 -13.2457 28.9263 -13.2329 28.7539C-13.2216 28.6012 -13.2093 28.4486 -13.1962 28.2962L-13.3101 28.2878C-13.3233 28.4408 -13.3356 28.5938 -13.347 28.7469C-13.3601 28.9228 -13.3642 29.0892 -13.3601 29.2463ZM-13.2199 27.371L-13.1062 27.382C-13.0726 27.0775 -13.0353 26.7735 -12.9943 26.4699L-13.1077 26.4563C-13.1488 26.7607 -13.1862 27.0656 -13.2199 27.371ZM-12.9736 25.5442L-12.8606 25.5605C-12.8123 25.2579 -12.7605 24.9558 -12.705 24.6543L-12.8175 24.6353C-12.8732 24.9376 -12.9252 25.2406 -12.9736 25.5442ZM-12.6397 23.73L-12.5276 23.7517C-12.4649 23.4516 -12.3986 23.1521 -12.3287 22.8533L-12.4401 22.829C-12.5102 23.1286 -12.5768 23.429 -12.6397 23.73ZM-12.2189 21.9327L-12.1081 21.9597C-12.0311 21.6627 -11.9504 21.3665 -11.8662 21.0712L-11.9763 21.0416C-12.0608 21.3378 -12.1416 21.6349 -12.2189 21.9327ZM-11.7123 20.1563L-11.603 20.1885C-11.5117 19.8954 -11.4169 19.6032 -11.3186 19.312L-11.427 19.2772C-11.5257 19.5693 -11.6207 19.8623 -11.7123 20.1563Z" stroke="url(#paint8_linear_456_1341)" stroke-width="0.227646" stroke-dasharray="0.91 0.91"/>
</g>
</g>
<defs>
<linearGradient id="paint0_linear_456_1341" x1="36.1272" y1="8.70403" x2="35.2857" y2="38.1505" gradientUnits="userSpaceOnUse">
<stop stop-color="#27B2FF"/>
<stop offset="1" stop-color="#197BFF"/>
</linearGradient>
<linearGradient id="paint1_linear_456_1341" x1="36.1272" y1="8.70403" x2="35.2857" y2="38.1505" gradientUnits="userSpaceOnUse">
<stop stop-color="#27B2FF"/>
<stop offset="1" stop-color="#197BFF"/>
</linearGradient>
<radialGradient id="paint2_radial_456_1341" cx="0" cy="0" r="1" gradientUnits="userSpaceOnUse" gradientTransform="translate(35.361 35.4997) rotate(90) scale(49.7406)">
<stop stop-color="white"/>
<stop offset="1" stop-color="#959FD5" stop-opacity="0"/>
</radialGradient>
<radialGradient id="paint3_radial_456_1341" cx="0" cy="0" r="1" gradientUnits="userSpaceOnUse" gradientTransform="translate(35.361 35.4997) rotate(90) scale(49.7406)">
<stop stop-color="white"/>
<stop offset="1" stop-color="#959FD5" stop-opacity="0"/>
</radialGradient>
<linearGradient id="paint4_linear_456_1341" x1="61.5557" y1="61.1318" x2="41.5871" y2="37.0896" gradientUnits="userSpaceOnUse">
<stop stop-color="#0061E3" stop-opacity="0"/>
<stop offset="1" stop-color="#197BFF"/>
</linearGradient>
<linearGradient id="paint5_linear_456_1341" x1="85.6787" y1="27.5542" x2="40.973" y2="81.2191" gradientUnits="userSpaceOnUse">
<stop stop-color="#12C45A"/>
<stop offset="1" stop-color="#5FED98"/>
</linearGradient>
<linearGradient id="paint6_linear_456_1341" x1="85.4084" y1="31.5551" x2="45.1737" y2="79.8528" gradientUnits="userSpaceOnUse">
<stop stop-color="white"/>
<stop offset="1" stop-color="#D9FFE8"/>
</linearGradient>
<linearGradient id="paint7_linear_456_1341" x1="-4.81206" y1="36.4994" x2="27.1101" y2="-4.45084" gradientUnits="userSpaceOnUse">
<stop stop-color="#12C45A"/>
<stop offset="1" stop-color="#5FED98"/>
</linearGradient>
<linearGradient id="paint8_linear_456_1341" x1="-6.99193" y1="33.809" x2="23.3587" y2="-5.47182" gradientUnits="userSpaceOnUse">
<stop stop-color="white"/>
<stop offset="1" stop-color="#D9FFE8"/>
</linearGradient>
<clipPath id="clip0_456_1341">
<rect y="0.138672" width="70.722" height="70.722" rx="35.361" fill="white"/>
</clipPath>
</defs>
</svg>
